<?xml version="1.0" encoding="UTF-8"?>
<svg id="Ebene_1" data-name="Ebene 1" xmlns="http://www.w3.org/2000/svg" viewBox="0 0 470.88 93.54">
  <g>
    <path d="M434.87,73.67h0s.03,0,.07,0c1.39-.22,2.69-.31,3.83-.32,.09,0,.19,0,.29,0s.19,0,.29,0c1.14,.01,2.45,.1,3.83,.32,.04,0,.07,0,.07,0l.55-1.07c-.17-.31-.2-.44-.2-.44-.61-2.03-.71-4.05-.71-9.32v-12.58s19.56-36.68,19.56-36.68c4.33-8.32,6.17-10.55,6.17-10.55l-.7-.93c-4.15,.8-8.12,.09-8.12,.09l-.64,1.18s.23,.78,.19,1.92c.01,1.01,.06,2.78-5.53,12.56l-13.71,25.9-18.81-36.82c-.91-1.85-.5-3.72-.5-3.72l-.67-1.13s-5.19,.93-9.77,0l-.81,1.21,.21,.28c1.56,2.12,4.96,7.24,7.43,11.93l18.05,34.79h0v12.54c0,5.39-.1,7.29-.71,9.32,0,0-.05,.16-.2,.44l.55,1.07Z"/>
    <path d="M206.35,1.2c-20.75,0-33.64,14.17-33.64,36.98s12.89,36.98,33.64,36.98c10.2,0,18.74-3.49,24.71-10.1,5.91-6.54,9.03-15.83,9.03-26.87,0-22.81-12.93-36.98-33.74-36.98m25.51,36.98c0,19.32-9.77,31.32-25.51,31.32s-25.51-12-25.51-31.32,9.77-31.42,25.51-31.42,25.51,12.04,25.51,31.42"/>
    <path d="M50.62,92.37l.33-.29c-.59-2.31,.01-4.55,.01-4.55l-.35-.35H16.93l-.35,.35s.76,2.27,.01,4.55l.33,.29H50.62Z"/>
    <path d="M11.55,73.68l.6-1.03s0-.02,0-.03c-.44-1.06-.56-2.06-.48-3.21,.14-1.91,.76-3.78,.94-4.3,.3-.92,.73-2.08,1.34-3.58l3.49-7.88c3.09-6.56,13.73-31.01,16.3-36.94l14.16,33.1s1.6,3.69,2.31,5.32l3.31,7.73c.58,1.39,1.07,2.56,1.45,3.61,0,.01,.03,.08,.03,.08,.29,.8,.5,1.53,.63,2.23,.14,.62,.24,1.29,.24,1.9,0,.33-.03,.62-.07,.87-.03,.23-.09,.44-.17,.65-.07,.2-.15,.34-.2,.43h0s.64,1.07,.64,1.07c4.42-.74,10.62-.01,10.62-.01l.65-1.05-.22-.28c-1.33-1.63-2.38-3.81-3.56-6.27l-1.17-2.51L35.73,2.31h-1.56L10.15,55.92c-3.66,8.12-6.85,15.18-7.99,16.41l-.24,.29h0s0,.01,0,.01l.66,1.05,.26-.04c3.55-.48,6.06-.25,8.23-.04,.28,.04,.47,.07,.47,.07"/>
    <path d="M145.01,40.34h0s-.03,0-.07,0c-1.39,.22-2.61,.39-3.75,.4-.1,0-.89,0-.99,0s-.19,0-.29,0c-1.14-.01-2.45-.1-3.83-.32-.03,0-.05-.01-.06-.01l-.55,1.09,.1,.23c.61,1.4,1.65,8.33,2.16,22.47-3.06,2.08-9.64,4.41-17.51,4.41-17.23,0-27.52-11.04-27.52-29.53,0-20.06,10.36-32.03,27.72-32.03,10.58,0,16.57,4.35,20.61,8.14l.23,.21,1.32-.5,2.01-6.05,.04-.12-.22-.22c-2.51-2.4-11.52-7.28-24.18-7.28-21.53,0-35.45,14.82-35.45,37.76s13.1,35.45,35.05,35.45c7.37,0,14.16-1.73,19.14-4.87,.52,1.29,.84,2.21,1.22,3.26l.56,1.56h3.88v-2.58c0-2.34-.01-5.26,.02-8.39h0s0,0,0,0v-12.25c0-5.38,.1-7.29,.71-9.31,0,0,.07-.22,.21-.45,0,0-.54-1.07-.55-1.07"/>
    <path d="M345.21,73.68l.6-1.03s0-.02,0-.03c-.44-1.06-.56-2.06-.48-3.21,.14-1.91,.76-3.78,.94-4.3,.3-.92,.73-2.08,1.34-3.58l3.49-7.88c3.09-6.56,13.73-31.01,16.3-36.94l14.16,33.1s1.6,3.69,2.31,5.32l3.31,7.73c.58,1.39,1.07,2.56,1.45,3.61,0,.01,.03,.08,.03,.08,.29,.8,.5,1.53,.64,2.23,.14,.62,.24,1.29,.24,1.9,0,.33-.03,.62-.07,.87-.03,.23-.09,.44-.17,.65-.07,.2-.15,.34-.2,.43h0s.64,1.07,.64,1.07c4.42-.74,10.62-.01,10.62-.01l.65-1.05-.22-.28c-1.33-1.63-2.38-3.81-3.56-6.27l-1.17-2.51L369.39,2.31h-1.56l-24.02,53.62c-3.66,8.12-6.85,15.18-7.99,16.41l-.24,.29h0s0,.01,0,.01l.66,1.05,.26-.04c3.55-.48,6.06-.25,8.23-.04,.28,.04,.47,.07,.47,.07"/>
  </g>
  <path d="M318.04,52.5c-.82-6.36-3.56-10.33-8.48-13.21-4.8-2.75-10.1-3.02-10.61-3.06v-.07l.21-.07c2.09-.67,3.71-1.1,6.3-2.6,2.71-1.76,6.14-4.9,7.1-10.7,.84-5.54-.91-9.62-1.86-11.21-5.18-8.88-15.07-9.08-19.43-9.23-6.49-.19-24.59,.85-24.96,.85l-.48,1.14s.76,.7,1.09,1.55c1.11,2.7,1.24,5.82,1.23,21.05v28.01c.04,11.96,.07,14.13-1.5,16.66-.23,.34-.69,.76-.79,.84l.53,1.2c23.16,1.51,30.78,.67,34.43,.01,9.73-1.89,13.95-7.11,15.56-10.44,1.27-2.43,2.07-7,1.67-10.73Zm-42.9-42.25c.05-2.21,1.08-2.55,3.23-2.9,0,0,6.4-1.1,12.98-.52,14.54,.92,14.11,11.65,14.01,14.37-.16,2.7-.72,5.23-2.51,7.52-1.1,1.41-2.54,2.69-4.14,3.47-2.6,1.27-4.88,2-8.51,2.07-3.26,.07-5.96,.09-9.29,.09-1.72,0-3.6,.01-5.33,0-.21,0-.38-.15-.42-.35,0-.03,0-.1,0-.1v-13.11l-.02-1.12V10.25Zm33.33,52.18c-3.47,4.93-10.01,6.75-16.44,6.89,0,0-13.57,.03-13.57,.03-.76-.02-1.82-.04-2.58-.12-.53-.06-.72-.27-.72-.8v-24.92s0-.41,0-.41v-2.53s-.06-.93,.81-1.22c.46-.15,7.37-.24,8.56-.26h0c3.59-.06,7.54-.04,9.86,.12,0,0,14.37,.91,16.1,13.57,.49,4.34-.33,7.26-2.02,9.66Z"/>
</svg>