<svg xmlns="http://www.w3.org/2000/svg" xmlns:xlink="http://www.w3.org/1999/xlink" width="300" zoomAndPan="magnify" viewBox="0 0 224.87999 44.999999" height="60" preserveAspectRatio="xMidYMid meet" version="1.0"><defs><g/><clipPath id="77792382c5"><path d="M 3 0.0117188 L 41 0.0117188 L 41 44 L 3 44 Z M 3 0.0117188 " clip-rule="nonzero"/></clipPath><clipPath id="a8a09fb42c"><path d="M 46 0.0117188 L 87 0.0117188 L 87 44 L 46 44 Z M 46 0.0117188 " clip-rule="nonzero"/></clipPath><clipPath id="8f1cbf0bdd"><path d="M 94 0.0117188 L 106 0.0117188 L 106 44 L 94 44 Z M 94 0.0117188 " clip-rule="nonzero"/></clipPath><clipPath id="16fcc704d8"><path d="M 145 0.0117188 L 186 0.0117188 L 186 44 L 145 44 Z M 145 0.0117188 " clip-rule="nonzero"/></clipPath><clipPath id="36ad7ecac6"><path d="M 193 0.0117188 L 221 0.0117188 L 221 44 L 193 44 Z M 193 0.0117188 " clip-rule="nonzero"/></clipPath></defs><g clip-path="url(#77792382c5)"><g fill="#000000" fill-opacity="1"><g transform="translate(1.759449, 43.253116)"><g><path d="M 15.242188 -0.617188 L 38.9375 -42.925781 L 3.085938 -42.925781 L 3.085938 -42.308594 L 25.878906 -42.308594 L 1.996094 0 L 38.222656 0 L 38.222656 -0.617188 Z M 15.242188 -0.617188 "/></g></g></g></g><g clip-path="url(#a8a09fb42c)"><g fill="#000000" fill-opacity="1"><g transform="translate(45.972795, 43.253116)"><g><path d="M 14.910156 -20.417969 C 17.378906 -20.417969 19.847656 -19.136719 21.082031 -16.523438 L 23.695312 -10.921875 C 26.828125 -4.226562 33.570312 0 40.929688 0 L 20.371094 -43.542969 L 0.617188 0 L 1.328125 0 L 8.738281 -16.429688 C 9.925781 -19.089844 12.441406 -20.417969 14.910156 -20.417969 Z M 14.910156 -20.417969 "/></g></g></g></g><g clip-path="url(#8f1cbf0bdd)"><g fill="#000000" fill-opacity="1"><g transform="translate(90.755889, 43.253116)"><g><path d="M 3.847656 -42.925781 L 3.847656 -11.015625 C 3.847656 -4.9375 8.785156 0 14.910156 0 L 14.910156 -31.910156 C 14.910156 -37.984375 9.972656 -42.925781 3.847656 -42.925781 Z M 3.847656 -42.925781 "/></g></g></g></g><g fill="#000000" fill-opacity="1"><g transform="translate(112.653802, 43.253116)"><g><path d="M 2.992188 -20.796875 L 2.992188 -18.613281 L 26.019531 -18.613281 L 26.019531 -20.796875 Z M 2.992188 -20.796875 "/></g></g></g><g clip-path="url(#16fcc704d8)"><g fill="#000000" fill-opacity="1"><g transform="translate(144.807322, 43.253116)"><g><path d="M 41.074219 -42.925781 L 40.121094 -42.925781 L 26.164062 -21.035156 L 16.714844 -37.417969 C 14.71875 -40.835938 11.0625 -42.925781 7.121094 -42.925781 L 0.617188 -42.925781 L 15.667969 -19.324219 L 15.667969 -11.015625 C 15.667969 -4.9375 20.605469 0 26.683594 0 L 26.683594 -20.371094 Z M 41.074219 -42.925781 "/></g></g></g></g><g clip-path="url(#36ad7ecac6)"><g fill="#000000" fill-opacity="1"><g transform="translate(189.685375, 43.253116)"><g><path d="M 14.910156 -0.617188 L 14.910156 -21.460938 L 29.34375 -21.460938 L 29.34375 -22.078125 L 14.910156 -22.078125 L 14.910156 -42.308594 L 31.148438 -42.308594 L 31.148438 -42.925781 L 3.847656 -42.925781 L 3.847656 -11.015625 C 3.847656 -4.9375 8.785156 0 14.910156 0 L 31.148438 0 L 31.148438 -0.617188 Z M 14.910156 -0.617188 "/></g></g></g></g></svg>